<svg id="SvgjsSvg1011" width="288" height="288" xmlns="http://www.w3.org/2000/svg" version="1.1" xmlns:xlink="http://www.w3.org/1999/xlink" xmlns:svgjs="http://svgjs.com/svgjs"><defs id="SvgjsDefs1012"></defs><g id="SvgjsG1013"><svg xmlns="http://www.w3.org/2000/svg" width="288" height="288" viewBox="0 0 16.008 16.588"><path fill="#000000" stroke="transparent" stroke-miterlimit="10" d="M3.291 15.548a3.773 3.773 0 01-3.176-2.965A3.9 3.9 0 011.1 8.892c1.018-1.087 2.043-2.169 3.1-3.214a3.663 3.663 0 015.551.493c.026.036.049.074.067.1l-.9.95a2.531 2.531 0 00-.983-.971 2.45 2.45 0 00-3 .507q-1.457 1.5-2.9 3.015a2.7 2.7 0 00.055 3.809 2.466 2.466 0 003.51-.104c.253-.259.5-.524.756-.782.038-.038.1-.082.147-.072.464.1.925.2 1.393.31v.016c-.556.572-1.089 1.17-1.674 1.707a3.406 3.406 0 01-2.366.932 4.111 4.111 0 01-.565-.04zm4.693-4.608a3.634 3.634 0 01-2.73-1.518c-.017-.022-.033-.046-.048-.069a.169.169 0 01-.014-.025l.906-.94a2.542 2.542 0 001.058 1A2.452 2.452 0 0010 8.9c1-1.039 2.013-2.072 3-3.126a2.551 2.551 0 00.607-2.61A2.484 2.484 0 009.4 2.113c-.257.254-.5.526-.752.786a.2.2 0 01-.148.067c-.464-.1-.925-.205-1.4-.312a.061.061 0 01.014-.026c.556-.571 1.091-1.167 1.676-1.7A3.443 3.443 0 0111.642.03 3.771 3.771 0 0114.885 3a3.922 3.922 0 01-1.024 3.742c-1 1.056-2.007 2.11-3.033 3.141a3.482 3.482 0 01-2.549 1.068q-.146 0-.295-.011z" transform="translate(.504 .501)" class="colorff7be7 svgShape colorStroketransparent svgStroke"></path></svg></g></svg>