<svg xmlns="http://www.w3.org/2000/svg" width="19.82" height="19.18" viewBox="0 0 19.82 19.18">
    <path id="prefix__ic_repost" d="M.765 11.37h1.243a8.387 8.387 0 0016.042 1.22h-4.24a.59.59 0 01-.59-.59v-.01a.589.589 0 01.59-.59h4.6l.007-.031h1.243c-.011.061-.024.122-.036.182a.6.6 0 01.2.448v5.39a.6.6 0 01-.6.6H19.2a.6.6 0 01-.6-.6v-3.115A9.621 9.621 0 01.765 11.37zM.62 8.4H.6a.6.6 0 01-.6-.6V2.381a.6.6 0 01.6-.6h.02a.6.6 0 01.6.6v3.812a9.617 9.617 0 0118.525 2.2h-1.229A8.388 8.388 0 002.17 7.18h3.82a.6.6 0 01.6.6v.02a.6.6 0 01-.6.6z" style="fill:#58b6dd"/>
</svg>
